<svg xmlns="http://www.w3.org/2000/svg" version="1.1" xmlns:xlink="http://www.w3.org/1999/xlink" xmlns:svgjs="http://svgjs.dev/svgjs" viewBox="0 0 800 800" opacity="1"><defs><linearGradient x1="50%" y1="0%" x2="50%" y2="100%" id="vvvortex-grad"><stop stop-color="hsl(162, 100%, 58%)" stop-opacity="1" offset="0%"></stop><stop stop-color="hsl(270, 73%, 53%)" stop-opacity="1" offset="100%"></stop></linearGradient></defs><g stroke="url(#vvvortex-grad)" fill="none" stroke-linecap="round"><circle r="380" cx="400" cy="400" stroke-width="8" stroke-dasharray="47 44" stroke-dashoffset="25" transform="rotate(310, 400, 400)"></circle><circle r="361" cx="400" cy="400" stroke-width="7" stroke-dasharray="55 20" stroke-dashoffset="25" transform="rotate(247, 400, 400)"></circle><circle r="342" cx="400" cy="400" stroke-width="7" stroke-dasharray="48 16" stroke-dashoffset="25" transform="rotate(187, 400, 400)"></circle><circle r="323" cx="400" cy="400" stroke-width="7" stroke-dasharray="43 26" stroke-dashoffset="25" transform="rotate(73, 400, 400)"></circle><circle r="304" cx="400" cy="400" stroke-width="6" stroke-dasharray="50 19" stroke-dashoffset="25" transform="rotate(193, 400, 400)"></circle><circle r="285" cx="400" cy="400" stroke-width="6" stroke-dasharray="45 31" stroke-dashoffset="25" transform="rotate(99, 400, 400)"></circle><circle r="266" cx="400" cy="400" stroke-width="6" stroke-dasharray="47 28" stroke-dashoffset="25" transform="rotate(34, 400, 400)"></circle><circle r="247" cx="400" cy="400" stroke-width="5" stroke-dasharray="34 37" stroke-dashoffset="25" transform="rotate(86, 400, 400)"></circle><circle r="228" cx="400" cy="400" stroke-width="5" stroke-dasharray="40 32" stroke-dashoffset="25" transform="rotate(181, 400, 400)"></circle><circle r="209" cx="400" cy="400" stroke-width="5" stroke-dasharray="38 37" stroke-dashoffset="25" transform="rotate(297, 400, 400)"></circle><circle r="190" cx="400" cy="400" stroke-width="4" stroke-dasharray="33 52" stroke-dashoffset="25" transform="rotate(89, 400, 400)"></circle><circle r="171" cx="400" cy="400" stroke-width="4" stroke-dasharray="44 11" stroke-dashoffset="25" transform="rotate(31, 400, 400)"></circle><circle r="152" cx="400" cy="400" stroke-width="4" stroke-dasharray="16 22" stroke-dashoffset="25" transform="rotate(315, 400, 400)"></circle><circle r="133" cx="400" cy="400" stroke-width="3" stroke-dasharray="54 24" stroke-dashoffset="25" transform="rotate(57, 400, 400)"></circle><circle r="114" cx="400" cy="400" stroke-width="3" stroke-dasharray="21 10" stroke-dashoffset="25" transform="rotate(1, 400, 400)"></circle><circle r="95" cx="400" cy="400" stroke-width="3" stroke-dasharray="26 35" stroke-dashoffset="25" transform="rotate(317, 400, 400)"></circle><circle r="76" cx="400" cy="400" stroke-width="2" stroke-dasharray="28 28" stroke-dashoffset="25" transform="rotate(93, 400, 400)"></circle><circle r="57" cx="400" cy="400" stroke-width="2" stroke-dasharray="52 50" stroke-dashoffset="25" transform="rotate(35, 400, 400)"></circle><circle r="38" cx="400" cy="400" stroke-width="2" stroke-dasharray="51 22" stroke-dashoffset="25" transform="rotate(87, 400, 400)"></circle><circle r="19" cx="400" cy="400" stroke-width="2" stroke-dasharray="11 40" stroke-dashoffset="25" transform="rotate(331, 400, 400)"></circle></g></svg>