<svg xmlns="http://www.w3.org/2000/svg" version="1.1" xmlns:xlink="http://www.w3.org/1999/xlink" xmlns:svgjs="http://svgjs.dev/svgjs" viewBox="0 0 800 800" opacity="1"><defs><linearGradient x1="50%" y1="0%" x2="50%" y2="100%" id="vvvortex-grad"><stop stop-color="hsl(265, 55%, 30%)" stop-opacity="1" offset="0%"></stop><stop stop-color="hsl(265, 55%, 60%)" stop-opacity="1" offset="100%"></stop></linearGradient></defs><g stroke="url(#vvvortex-grad)" fill="none" stroke-linecap="round"><circle r="209" cx="400" cy="400" stroke-width="8" stroke-dasharray="46 15" stroke-dashoffset="25" transform="rotate(139, 400, 400)" opacity="1.00"></circle><circle r="190" cx="400" cy="400" stroke-width="7" stroke-dasharray="18 16" stroke-dashoffset="25" transform="rotate(140, 400, 400)" opacity="0.91"></circle><circle r="171" cx="400" cy="400" stroke-width="6" stroke-dasharray="22 30" stroke-dashoffset="25" transform="rotate(121, 400, 400)" opacity="0.81"></circle><circle r="152" cx="400" cy="400" stroke-width="6" stroke-dasharray="44 39" stroke-dashoffset="25" transform="rotate(188, 400, 400)" opacity="0.72"></circle><circle r="133" cx="400" cy="400" stroke-width="5" stroke-dasharray="34 53" stroke-dashoffset="25" transform="rotate(157, 400, 400)" opacity="0.62"></circle><circle r="114" cx="400" cy="400" stroke-width="5" stroke-dasharray="26 39" stroke-dashoffset="25" transform="rotate(203, 400, 400)" opacity="0.53"></circle><circle r="95" cx="400" cy="400" stroke-width="4" stroke-dasharray="37 49" stroke-dashoffset="25" transform="rotate(103, 400, 400)" opacity="0.43"></circle><circle r="76" cx="400" cy="400" stroke-width="3" stroke-dasharray="26 15" stroke-dashoffset="25" transform="rotate(306, 400, 400)" opacity="0.34"></circle><circle r="57" cx="400" cy="400" stroke-width="3" stroke-dasharray="12 35" stroke-dashoffset="25" transform="rotate(132, 400, 400)" opacity="0.24"></circle><circle r="38" cx="400" cy="400" stroke-width="2" stroke-dasharray="17 36" stroke-dashoffset="25" transform="rotate(99, 400, 400)" opacity="0.15"></circle><circle r="19" cx="400" cy="400" stroke-width="2" stroke-dasharray="29 22" stroke-dashoffset="25" transform="rotate(165, 400, 400)" opacity="0.05"></circle></g></svg>